<?xml version="1.0" encoding="utf-8"?>
<!-- Generator: Adobe Illustrator 21.0.2, SVG Export Plug-In . SVG Version: 6.00 Build 0)  -->
<svg version="1.1" id="Camada_1" xmlns="http://www.w3.org/2000/svg" xmlns:xlink="http://www.w3.org/1999/xlink" x="0px" y="0px"
	 viewBox="0 0 302 204" style="enable-background:new 0 0 302 204;" xml:space="preserve">
<style type="text/css">
	.st0{fill:#FFFFFF;}
	.st1{fill:#2D2D2D;}
</style>
<g>
	<g>
		<path class="st0" d="M22.7,197.7c-0.9,0-1.8,0-2.9-0.1c-1.1,0-2.3-0.2-3.4-0.3c-1.2-0.2-2.4-0.3-3.5-0.6c-1.2-0.2-2.3-0.5-3.3-0.9
			c-2.8-1.1-4.1-2.9-4.1-5.5v-35.2c0-1.1,0.3-1.9,0.9-2.5c0.6-0.6,1.4-1,2.4-1.4c2.2-0.7,4.4-1.2,6.9-1.4c2.4-0.2,4.6-0.3,6.5-0.3
			c3.9,0,7.5,0.5,10.7,1.4c3.2,1,5.9,2.4,8.2,4.4c2.3,2,4.1,4.5,5.3,7.5c1.3,3,1.9,6.6,1.9,10.7c0,4-0.6,7.5-1.8,10.5
			c-1.2,3-2.9,5.5-5.2,7.5c-2.2,2-4.9,3.6-8,4.6C30,197.2,26.5,197.7,22.7,197.7z M18.5,186.7c0.6,0.1,1.2,0.2,2,0.3
			c0.8,0.1,1.6,0.1,2.3,0.1c1.7,0,3.3-0.3,4.7-0.8c1.4-0.5,2.7-1.3,3.7-2.3c1-1.1,1.8-2.4,2.4-4.1c0.6-1.7,0.9-3.7,0.9-6.1
			c0-4.5-1.1-7.9-3.2-10.2s-4.9-3.4-8.4-3.4c-0.7,0-1.4,0-2.1,0.1c-0.7,0.1-1.5,0.1-2.2,0.2V186.7z"/>
		<path class="st0" d="M69.9,197.7c-3,0-5.7-0.4-8.3-1.2c-2.5-0.8-4.8-2.1-6.6-3.7c-1.9-1.7-3.4-3.7-4.5-6.3
			c-1.1-2.5-1.6-5.5-1.6-8.8c0-3.3,0.5-6.2,1.6-8.6c1.1-2.4,2.5-4.3,4.3-5.9c1.8-1.5,3.8-2.7,6-3.4c2.3-0.7,4.6-1.1,6.9-1.1
			c2.7,0,5.1,0.4,7.3,1.2c2.2,0.8,4.1,1.9,5.7,3.3c1.6,1.4,2.8,3.1,3.7,5.1c0.9,2,1.3,4.1,1.3,6.4c0,1.7-0.5,3-1.4,3.9
			c-1,0.9-2.3,1.5-4,1.7l-18.6,2.8c0.6,1.7,1.7,2.9,3.4,3.7c1.7,0.8,3.7,1.2,5.9,1.2c2.1,0,4-0.3,5.8-0.8c1.8-0.5,3.3-1.1,4.5-1.8
			c0.8,0.5,1.5,1.2,2,2.1c0.6,0.9,0.8,1.9,0.8,2.9c0,2.3-1.1,3.9-3.2,5.1c-1.6,0.9-3.4,1.4-5.4,1.7
			C73.5,197.6,71.6,197.7,69.9,197.7z M67.8,168.1c-1.2,0-2.3,0.2-3.1,0.6c-0.9,0.4-1.6,0.9-2.1,1.5c-0.6,0.6-1,1.3-1.2,2.1
			c-0.3,0.8-0.4,1.6-0.5,2.4l12.9-2.1c-0.2-1-0.7-2-1.7-3C71,168.6,69.6,168.1,67.8,168.1z"/>
		<path class="st0" d="M112,195.6c-0.7,0.6-1.7,1-3.1,1.4c-1.4,0.4-2.9,0.5-4.6,0.5c-2,0-3.7-0.3-5.1-0.8c-1.4-0.5-2.4-1.3-3-2.4
			c-0.5-0.9-1-2-1.6-3.6c-0.6-1.5-1.3-3.2-2-5.1c-0.7-1.9-1.4-3.9-2.2-6.1c-0.8-2.2-1.5-4.3-2.1-6.4c-0.7-2.1-1.3-4.1-1.8-6.1
			c-0.6-2-1-3.7-1.4-5.2c0.7-0.7,1.6-1.3,2.8-1.8c1.2-0.5,2.5-0.8,3.9-0.8c1.8,0,3.2,0.4,4.3,1.1c1.1,0.7,2,2.1,2.5,4.1l2.9,11.5
			c0.6,2.3,1.1,4.3,1.6,6.1c0.5,1.8,0.9,3.3,1.1,4.3h0.4c1-3.7,2-7.8,3-12.4c1.1-4.5,2-9,2.9-13.3c0.9-0.5,1.8-0.8,2.9-1.1
			c1.1-0.3,2.1-0.4,3.1-0.4c1.8,0,3.2,0.4,4.4,1.1c1.2,0.8,1.8,2.1,1.8,3.9c0,0.8-0.2,2-0.6,3.5c-0.4,1.5-0.9,3.3-1.4,5.2
			c-0.6,1.9-1.3,4-2,6.1c-0.8,2.2-1.6,4.3-2.4,6.3c-0.8,2.1-1.6,4-2.4,5.8C113.3,192.9,112.6,194.4,112,195.6z"/>
		<path class="st0" d="M148.7,160c-3.9,0-6.8,1.2-8.9,3.5c-2.1,2.4-3.1,5.7-3.1,10c0,4.4,1.1,7.7,3.4,10.1c2.3,2.4,5.4,3.5,9.2,3.5
			c2.1,0,3.8-0.3,5.2-0.8c1.4-0.6,2.8-1.2,4.1-1.9c0.9,0.7,1.5,1.5,2,2.5c0.5,1,0.7,2.1,0.7,3.4c0,2.1-1.1,3.8-3.4,5.2
			c-2.3,1.4-5.8,2.1-10.4,2.1c-3.4,0-6.5-0.5-9.5-1.4c-3-1-5.6-2.4-7.8-4.4c-2.2-2-4-4.5-5.2-7.5s-1.9-6.7-1.9-10.9
			c0-3.9,0.6-7.4,1.8-10.4c1.2-3,2.9-5.5,5.1-7.6c2.1-2.1,4.6-3.6,7.5-4.7c2.9-1.1,5.9-1.6,9.2-1.6c4.6,0,8.2,0.8,10.7,2.3
			c2.5,1.5,3.8,3.4,3.8,5.8c0,1.3-0.3,2.4-1,3.4c-0.7,1-1.4,1.7-2.3,2.3c-1.3-0.9-2.7-1.6-4.2-2.2C152.4,160.3,150.7,160,148.7,160z
			"/>
		<path class="st0" d="M178.4,158.7c2.7,0,5.2,0.3,7.4,0.8c2.2,0.6,4.1,1.4,5.7,2.5c1.6,1.1,2.8,2.6,3.7,4.3
			c0.9,1.7,1.3,3.8,1.3,6.1v16.9c0,1.3-0.4,2.4-1.1,3.2c-0.7,0.8-1.6,1.5-2.6,2.1c-3.3,2-7.9,2.9-13.8,2.9c-2.7,0-5.1-0.3-7.2-0.8
			c-2.1-0.5-4-1.3-5.5-2.3c-1.5-1-2.7-2.3-3.5-3.8c-0.8-1.6-1.2-3.4-1.2-5.4c0-3.5,1-6.1,3.1-8c2.1-1.9,5.3-3,9.6-3.5l9.9-1.1v-0.5
			c0-1.5-0.6-2.5-1.9-3.1c-1.3-0.6-3.1-0.9-5.5-0.9c-1.9,0-3.8,0.2-5.6,0.6c-1.8,0.4-3.4,0.9-4.9,1.5c-0.7-0.5-1.2-1.1-1.7-2.1
			c-0.5-0.9-0.7-1.9-0.7-2.9c0-1.3,0.3-2.4,0.9-3.1c0.6-0.8,1.6-1.4,2.9-2c1.5-0.6,3.2-1,5.2-1.2
			C174.8,158.9,176.7,158.7,178.4,158.7z M179,188.4c0.9,0,1.8-0.1,2.8-0.3c1-0.2,1.8-0.4,2.3-0.7v-6l-5.4,0.5
			c-1.4,0.1-2.6,0.4-3.5,0.9c-0.9,0.5-1.4,1.3-1.4,2.3s0.4,1.8,1.2,2.5C175.8,188.1,177.2,188.4,179,188.4z"/>
		<path class="st0" d="M213,196.5c-0.5,0.2-1.3,0.3-2.4,0.5c-1.1,0.2-2.2,0.2-3.4,0.2c-1.1,0-2.1-0.1-3-0.2
			c-0.9-0.2-1.6-0.5-2.2-0.9c-0.6-0.5-1.1-1.1-1.4-1.8c-0.3-0.8-0.5-1.8-0.5-3.1v-22.6c0-1.2,0.2-2.1,0.6-3c0.4-0.8,1-1.6,1.8-2.2
			c0.8-0.7,1.8-1.2,3-1.8c1.2-0.5,2.5-1,3.8-1.4c1.4-0.4,2.8-0.7,4.2-0.9c1.5-0.2,2.9-0.3,4.4-0.3c2.4,0,4.3,0.5,5.7,1.4
			c1.4,0.9,2.1,2.5,2.1,4.6c0,0.7-0.1,1.4-0.3,2.1c-0.2,0.7-0.5,1.3-0.8,1.8c-1.1,0-2.1,0.1-3.2,0.2c-1.1,0.1-2.2,0.3-3.2,0.5
			c-1.1,0.2-2,0.4-3,0.6c-0.9,0.2-1.7,0.5-2.4,0.8V196.5z"/>
		<path class="st0" d="M224,178.2c0-3.3,0.5-6.2,1.5-8.6c1-2.4,2.4-4.5,4.2-6.1c1.8-1.6,3.9-2.8,6.3-3.6c2.4-0.8,5-1.2,7.7-1.2
			c1,0,2,0.1,2.9,0.3c1,0.2,1.7,0.4,2.3,0.6v-12.2c0.5-0.2,1.3-0.3,2.4-0.5c1.1-0.2,2.2-0.3,3.4-0.3c1.1,0,2.1,0.1,3,0.2
			c0.9,0.2,1.6,0.5,2.2,0.9c0.6,0.5,1.1,1.1,1.4,1.8c0.3,0.8,0.5,1.8,0.5,3.1v35.7c0,2.4-1.1,4.2-3.3,5.7c-1.5,1-3.3,1.8-5.7,2.5
			c-2.3,0.7-5,1.1-8,1.1c-3.3,0-6.2-0.5-8.8-1.4c-2.6-0.9-4.8-2.2-6.6-3.9c-1.8-1.7-3.1-3.8-4.1-6.1
			C224.5,183.9,224,181.2,224,178.2z M245.5,168.8c-2.7,0-4.8,0.8-6.3,2.3c-1.5,1.6-2.2,3.9-2.2,7.1c0,3.1,0.7,5.5,2,7.1
			s3.3,2.4,5.9,2.4c0.9,0,1.7-0.1,2.5-0.4c0.7-0.3,1.3-0.6,1.7-0.9v-16.6C248.1,169.1,246.9,168.8,245.5,168.8z"/>
		<path class="st0" d="M296.6,185.6c0,3.8-1.4,6.8-4.3,9c-2.9,2.2-7.1,3.2-12.7,3.2c-2.1,0-4.1-0.2-5.9-0.5
			c-1.8-0.3-3.4-0.8-4.6-1.4s-2.3-1.4-3-2.4c-0.7-1-1.1-2.1-1.1-3.4c0-1.2,0.3-2.2,0.8-3.1c0.5-0.8,1.1-1.5,1.8-2.1
			c1.5,0.8,3.1,1.5,5,2.1c1.9,0.6,4.1,0.9,6.5,0.9c1.6,0,2.8-0.2,3.6-0.7c0.8-0.5,1.2-1.1,1.2-1.8c0-0.7-0.3-1.3-0.9-1.7
			s-1.6-0.7-3-1l-2.3-0.5c-4.4-0.9-7.6-2.2-9.8-4c-2.1-1.8-3.2-4.5-3.2-7.9c0-1.9,0.4-3.5,1.2-5.1c0.8-1.5,1.9-2.8,3.4-3.8
			c1.5-1,3.2-1.8,5.2-2.3c2-0.6,4.3-0.8,6.8-0.8c1.9,0,3.6,0.1,5.2,0.4c1.6,0.3,3.1,0.7,4.3,1.2c1.2,0.6,2.2,1.3,2.9,2.1
			c0.7,0.9,1.1,1.9,1.1,3.1c0,1.2-0.2,2.1-0.6,3c-0.4,0.8-1,1.5-1.6,2.1c-0.4-0.3-1-0.5-1.8-0.8c-0.8-0.3-1.7-0.5-2.6-0.8
			c-1-0.2-1.9-0.4-2.9-0.6c-1-0.2-1.9-0.2-2.7-0.2c-1.7,0-2.9,0.2-3.8,0.6s-1.4,1-1.4,1.8c0,0.6,0.3,1,0.8,1.4
			c0.5,0.4,1.5,0.7,2.9,1l2.3,0.5c4.8,1.1,8.3,2.6,10.3,4.6C295.6,180,296.6,182.5,296.6,185.6z"/>
	</g>
	<g>
		<g>
			<g>
				<path class="st1" d="M73.6,133.8c-6.3,0-11.4-5.1-11.4-11.4V38.1c0-6.3,5.1-11.4,11.4-11.4h50.2c6.3,0,11.4,5.1,11.4,11.4v84.4
					c0,6.3-5.1,11.4-11.4,11.4H73.6z"/>
				<path class="st0" d="M123.8,28.2c5.4,0,9.9,4.4,9.9,9.9v84.4c0,5.4-4.4,9.9-9.9,9.9H73.6c-5.4,0-9.9-4.4-9.9-9.9V38.1
					c0-5.4,4.4-9.9,9.9-9.9H123.8 M123.8,25.2H73.6c-7.1,0-12.9,5.8-12.9,12.9v84.4c0,7.1,5.8,12.9,12.9,12.9h50.2
					c7.1,0,12.9-5.8,12.9-12.9V38.1C136.6,31,130.9,25.2,123.8,25.2L123.8,25.2z"/>
			</g>
			<g>
				<g>
					<path class="st0" d="M91,86.9c0,0.1,0.1,0.3,0.1,0.5c0,0.2,0,0.4,0,0.6c0,0.4-0.1,0.9-0.1,1.3c-0.1,0.4-0.3,0.7-0.5,1
						c-0.2,0.3-0.5,0.5-0.9,0.7c-0.4,0.2-0.8,0.3-1.4,0.3c-0.5,0-1-0.1-1.5-0.3c-0.5-0.2-1.1-0.5-1.9-1l-8-4.6c-0.6-0.8-1-2-1-3.3
						c0-1,0.1-1.8,0.4-2.4c0.3-0.6,0.7-1,1.3-1.3l10.2-6c1.2,0.3,2,0.8,2.5,1.3c0.4,0.6,0.7,1.2,0.7,1.8c0,0.9-0.2,1.5-0.7,2
						c-0.4,0.5-1.1,0.9-1.9,1.4l-6.6,3.3L91,86.9z"/>
					<path class="st0" d="M97.6,95.4c-0.3,0-0.7,0.1-1,0.1c-0.3,0-0.6,0-0.9,0c-1,0-1.8-0.2-2.4-0.7c-0.6-0.4-0.8-1.2-0.8-2.2
						c0-0.7,0.1-1.3,0.3-2c0.2-0.7,0.4-1.3,0.5-1.8l6.6-23.6c0.4,0,0.7-0.1,1-0.1c0.3,0,0.6,0,0.9,0c1,0,1.8,0.2,2.4,0.6
						c0.6,0.4,0.9,1.1,0.9,2c0,0.7-0.1,1.4-0.3,2c-0.2,0.6-0.4,1.3-0.6,1.9L97.6,95.4z"/>
					<path class="st0" d="M106.3,76.7c0-0.1-0.1-0.3-0.1-0.5c0-0.2,0-0.4,0-0.6c0-0.4,0-0.9,0.1-1.3c0.1-0.4,0.3-0.7,0.5-1
						c0.2-0.3,0.5-0.5,0.9-0.7s0.8-0.3,1.4-0.3c0.5,0,1,0.1,1.5,0.3c0.5,0.2,1.1,0.5,1.9,1l8,4.6c0.6,0.8,1,2,1,3.3
						c0,1-0.1,1.8-0.4,2.4c-0.3,0.6-0.7,1-1.3,1.3l-10.2,6c-1.2-0.3-2-0.8-2.5-1.3c-0.4-0.6-0.7-1.2-0.7-1.8c0-0.9,0.2-1.5,0.7-2
						c0.4-0.5,1.1-0.9,1.9-1.4l6.6-3.3L106.3,76.7z"/>
				</g>
			</g>
		</g>
		<g>
			<g>
				<path class="st1" d="M178.2,133.8c-6.3,0-11.4-5.1-11.4-11.4V38.1c0-6.3,5.1-11.4,11.4-11.4h50.2c6.3,0,11.4,5.1,11.4,11.4v84.4
					c0,6.3-5.1,11.4-11.4,11.4H178.2z"/>
				<path class="st0" d="M228.4,28.2c5.4,0,9.9,4.4,9.9,9.9v84.4c0,5.4-4.4,9.9-9.9,9.9h-50.2c-5.4,0-9.9-4.4-9.9-9.9V38.1
					c0-5.4,4.4-9.9,9.9-9.9H228.4 M228.4,25.2h-50.2c-7.1,0-12.9,5.8-12.9,12.9v84.4c0,7.1,5.8,12.9,12.9,12.9h50.2
					c7.1,0,12.9-5.8,12.9-12.9V38.1C241.3,31,235.5,25.2,228.4,25.2L228.4,25.2z"/>
			</g>
			<g>
				<g>
					<path class="st0" d="M195.7,86.9c0,0.1,0.1,0.3,0.1,0.5c0,0.2,0,0.4,0,0.6c0,0.4-0.1,0.9-0.1,1.3c-0.1,0.4-0.3,0.7-0.5,1
						c-0.2,0.3-0.5,0.5-0.9,0.7c-0.4,0.2-0.8,0.3-1.4,0.3c-0.5,0-1-0.1-1.5-0.3c-0.5-0.2-1.1-0.5-1.9-1l-8-4.6c-0.6-0.8-1-2-1-3.3
						c0-1,0.1-1.8,0.4-2.4c0.3-0.6,0.7-1,1.3-1.3l10.2-6c1.2,0.3,2,0.8,2.5,1.3c0.4,0.6,0.7,1.2,0.7,1.8c0,0.9-0.2,1.5-0.7,2
						c-0.4,0.5-1.1,0.9-1.9,1.4l-6.6,3.3L195.7,86.9z"/>
					<path class="st0" d="M202.2,95.4c-0.3,0-0.7,0.1-1,0.1c-0.3,0-0.6,0-0.9,0c-1,0-1.8-0.2-2.4-0.7c-0.6-0.4-0.8-1.2-0.8-2.2
						c0-0.7,0.1-1.3,0.3-2c0.2-0.7,0.4-1.3,0.5-1.8l6.6-23.6c0.4,0,0.7-0.1,1-0.1c0.3,0,0.6,0,0.9,0c1,0,1.8,0.2,2.4,0.6
						c0.6,0.4,0.9,1.1,0.9,2c0,0.7-0.1,1.4-0.3,2c-0.2,0.6-0.4,1.3-0.6,1.9L202.2,95.4z"/>
					<path class="st0" d="M211,76.7c0-0.1-0.1-0.3-0.1-0.5c0-0.2,0-0.4,0-0.6c0-0.4,0-0.9,0.1-1.3c0.1-0.4,0.3-0.7,0.5-1
						c0.2-0.3,0.5-0.5,0.9-0.7s0.8-0.3,1.4-0.3c0.5,0,1,0.1,1.5,0.3c0.5,0.2,1.1,0.5,1.9,1l8,4.6c0.6,0.8,1,2,1,3.3
						c0,1-0.1,1.8-0.4,2.4c-0.3,0.6-0.7,1-1.3,1.3l-10.2,6c-1.2-0.3-2-0.8-2.5-1.3c-0.4-0.6-0.7-1.2-0.7-1.8c0-0.9,0.2-1.5,0.7-2
						c0.4-0.5,1.1-0.9,1.9-1.4l6.6-3.3L211,76.7z"/>
				</g>
			</g>
		</g>
		<g>
			<g>
				<path class="st1" d="M117.9,142.5c-7.8,0-14.2-6.4-14.2-14.2V19.7c0-7.8,6.4-14.2,14.2-14.2h64.6c7.8,0,14.2,6.4,14.2,14.2
					v108.6c0,7.8-6.4,14.2-14.2,14.2H117.9z"/>
				<path class="st0" d="M182.5,7c7,0,12.7,5.7,12.7,12.7v108.6c0,7-5.7,12.7-12.7,12.7h-64.6c-7,0-12.7-5.7-12.7-12.7V19.7
					c0-7,5.7-12.7,12.7-12.7H182.5 M182.5,4h-64.6c-8.6,0-15.7,7-15.7,15.7v108.6c0,8.6,7,15.7,15.7,15.7h64.6
					c8.6,0,15.7-7,15.7-15.7V19.7C198.1,11,191.1,4,182.5,4L182.5,4z"/>
			</g>
			<g>
				<g>
					<path class="st0" d="M140.3,82.5c0.1,0.2,0.1,0.4,0.1,0.7c0,0.3,0,0.5,0,0.7c0,0.6-0.1,1.1-0.2,1.6c-0.1,0.5-0.3,1-0.6,1.3
						c-0.3,0.4-0.7,0.7-1.1,0.9c-0.5,0.2-1,0.4-1.7,0.4c-0.7,0-1.3-0.1-2-0.4c-0.7-0.3-1.5-0.7-2.4-1.2l-10.3-5.9
						c-0.8-1.1-1.2-2.5-1.2-4.3c0-1.3,0.2-2.4,0.6-3.1c0.4-0.7,0.9-1.3,1.7-1.7l13.2-7.7c1.6,0.4,2.6,1,3.2,1.7
						c0.6,0.7,0.8,1.5,0.8,2.3c0,1.1-0.3,2-0.8,2.6c-0.6,0.6-1.4,1.2-2.5,1.7l-8.4,4.3L140.3,82.5z"/>
					<path class="st0" d="M148.7,93.4c-0.4,0.1-0.9,0.1-1.3,0.1c-0.4,0-0.8,0-1.1,0c-1.3,0-2.4-0.3-3.1-0.9
						c-0.7-0.6-1.1-1.5-1.1-2.8c0-0.9,0.1-1.7,0.4-2.6c0.3-0.9,0.5-1.7,0.7-2.3l8.4-30.4c0.5-0.1,0.9-0.1,1.3-0.1c0.4,0,0.8,0,1.1,0
						c1.3,0,2.3,0.3,3,0.8c0.8,0.5,1.1,1.4,1.1,2.6c0,0.9-0.1,1.8-0.4,2.6c-0.3,0.8-0.5,1.7-0.7,2.5L148.7,93.4z"/>
					<path class="st0" d="M160,69.4c-0.1-0.2-0.1-0.4-0.1-0.7c0-0.3,0-0.5,0-0.7c0-0.6,0.1-1.1,0.2-1.6c0.1-0.5,0.3-1,0.6-1.3
						c0.3-0.4,0.7-0.7,1.1-0.9c0.5-0.2,1-0.4,1.7-0.4c0.7,0,1.3,0.1,2,0.4c0.7,0.3,1.5,0.7,2.4,1.2l10.3,5.9
						c0.8,1.1,1.2,2.5,1.2,4.3c0,1.3-0.2,2.4-0.6,3.1c-0.4,0.7-0.9,1.3-1.7,1.7l-13.2,7.7c-1.6-0.4-2.6-1-3.2-1.7
						c-0.6-0.7-0.8-1.5-0.8-2.3c0-1.1,0.3-2,0.8-2.6c0.6-0.6,1.4-1.2,2.5-1.7l8.4-4.3L160,69.4z"/>
				</g>
			</g>
		</g>
	</g>
</g>
</svg>
